<?xml version="1.0" encoding="UTF-8" standalone="no"?>
<!DOCTYPE svg PUBLIC "-//W3C//DTD SVG 1.1//EN" "http://www.w3.org/Graphics/SVG/1.1/DTD/svg11.dtd">
<svg width="100%" height="100%" viewBox="0 0 1024 1024" version="1.1" xmlns="http://www.w3.org/2000/svg" xmlns:xlink="http://www.w3.org/1999/xlink" xml:space="preserve" xmlns:serif="http://www.serif.com/" style="fill-rule:evenodd;clip-rule:evenodd;stroke-linejoin:round;stroke-miterlimit:2;">
    <g id="Fondo" transform="matrix(1,0,0,1,142,118)">
        <path d="M329.54,7.979C370.318,2.057 414.216,7.254 421.524,8.119C422.721,9.27 422.406,11.148 429.512,11.363C432.272,11.446 432.233,11.453 434.529,10.054C437.578,10.344 437.458,10.383 440.554,11.05C438.23,15.886 442.478,12.842 443.5,13.111C445.137,13.542 444.799,14.169 446.513,14.423C447.969,14.639 448.369,14.068 448.5,14.1C450.147,14.504 449.872,15.092 451.525,15.242C452.165,15.3 457.644,15.795 459.5,16.252C461.573,16.762 461.328,15.239 461.565,15.108C464.277,15.793 510.439,25.433 556.601,51.318C555.825,52.897 555.196,53.291 556.72,54.004C557.81,54.514 557.678,54.581 558.713,55.112C560.565,56.062 560.501,56.142 560.664,56.218C561.031,56.391 561.04,56.256 563.64,55.266C581.673,67.084 581.922,66.51 583.423,67.618C608.635,84.143 622.661,97.582 627.673,102.316C626.306,105.525 630.237,107.586 634.827,112.111C640.058,117.266 648.045,125.815 648.5,125.602C649.003,125.367 649.127,124.614 649.629,124.379C655.612,130.654 655.308,130.749 670.607,149.417C684.372,169.352 722.517,216.504 738.866,303.458C737.713,305.631 737.862,307.169 737.894,307.5C737.979,308.377 738.938,318.296 738.975,318.455C740.37,324.475 740.565,331.48 741.775,334.5C742.193,333.843 742.611,333.186 743.029,332.529C745.691,359.081 744.246,383.13 743.982,387.522C743.785,387.62 741.97,387.031 741.826,389.506C741.78,390.305 741.31,398.384 741.626,399.5C741.781,400.051 742.84,399.986 742.996,400.537C738.751,402.527 741.338,404.077 739.98,408.557C739.863,408.943 738.922,421.816 738.5,424.661C737.294,426.214 735.496,442.528 733.982,445.613C733.286,447.031 734.103,446.887 735.63,448.53C699.807,602.037 583.12,667.697 572.609,674.671C570.123,673.621 570.162,673.4 569.68,673.745C566.942,675.702 566.769,675.494 566.674,675.768C566.674,675.768 568.263,677.218 568.402,677.344C566.778,678.495 563.115,680.504 562.645,680.761C562.237,680.985 559.379,682.553 557.613,683.688C557.078,683.469 557.534,681.98 555.5,682.824C549.94,685.129 549.037,686.256 547.708,686.876C546.095,687.63 546.539,687.959 546.614,689.73C520.651,702.402 520.605,702.049 494.545,711.622C473.817,718.914 443.954,724.614 439.493,725.465C414.088,729.841 398.751,730.149 395.468,730.219C392.96,728.362 392.577,728.078 356.5,728.689C353.873,728.733 353.729,728.78 353.5,728.853C352.703,729.108 353.323,729.705 352.471,729.978C332.874,729.481 325.217,727.501 311.494,725.522C302.77,724.006 250.67,714.947 206.477,690.542C205.309,689.835 205.405,689.887 205.309,689.835C204.497,689.394 204.513,689.531 203.714,689.103C196.982,685.504 155.599,663.381 125.352,634.655C126.04,633.113 126.192,633.099 126.095,632.99C124.053,630.678 124.093,629.437 121.289,630.725C115.114,624.802 115.201,624.823 109.256,618.741C105.136,614.478 80.802,589.303 63.216,560.676C57.657,551.413 31.713,513.109 16.727,453.427C8.574,421.729 9.124,410.923 7.231,400.521C9.367,398.549 9.468,398.34 9.256,392.503C9.073,387.483 8.517,387.677 8.145,386.5C7.942,385.859 8.324,365.334 8.359,363.493C8.702,345.05 7.336,344.933 8.047,343.5C10.638,338.276 7.62,337.602 10.058,332.373C10.558,325.35 10.691,325.34 10.461,324.494C9.78,321.984 13.75,316.895 10.056,312.441C11.357,303.85 11.389,303.972 13.016,295.424C13.948,295.864 15.328,297.385 15.386,294.474C15.422,292.642 15.318,292.641 15.389,292.5C17.807,287.672 15.423,287.731 15.024,286.407C17.045,278.386 29.708,228.114 53.018,190.239C54.101,189.877 54.039,190.734 55.197,190.346C55.305,190.31 55.642,190.197 56.08,189.215C57.387,186.283 57.887,186.61 58.916,183.5C60.678,181.824 62.442,178.195 63.19,177.292C65.016,175.092 62.866,174.915 62.479,174.487C63.038,173.686 67.017,167.981 69.357,164.397C91.235,135.658 91.552,135.954 93.414,133.43C94.37,133.35 93.522,134.711 94.5,134.629C94.672,134.615 94.644,134.617 96.125,133.204C98.405,131.028 99.465,131.008 98.154,128.214C99.69,126.217 99.624,126.283 101.375,124.384C104.158,125.589 106.625,123.586 105.332,120.336C114.482,110.819 117.866,107.033 128.168,98.114C130.348,99.176 130.521,98.917 132.191,97.236C134.33,95.084 135.647,95.197 134.39,92.374C140.217,87.785 149.272,78.951 171.515,64.523C171.85,64.818 172.115,67.08 174.342,65.165C175.741,63.963 183.193,60.567 182.651,59.5C182.392,58.989 181.651,58.841 181.391,58.33C187.159,54.888 190.253,52.713 205.296,45.093C214.465,40.404 214.446,40.522 223.547,36.606C225.617,38.444 225.893,38.627 228.378,37.233C231.942,35.234 229.513,34.469 229.366,34.174C246.836,26.558 260.369,22.702 264.502,21.507C266.112,23.015 265.998,23.895 267.355,23.089C271.804,20.445 277.351,20.695 278.382,20.062C279.468,19.397 288.534,17.138 289.455,17.218C289.621,17.328 291.527,18.589 291.527,18.589C297.117,17.895 297.027,17.894 302.596,17.948C304.324,17.964 303.854,17.072 305.296,16.229C306.122,15.745 306.132,15.624 306.14,15.537C306.214,14.666 305.399,15.014 305.478,14.084C308.947,12.268 323.408,11.055 324.426,11.019C327.218,9.682 327.32,10.544 330.475,10.231C332.534,10.027 331.191,9.074 329.54,7.979ZM189.631,71.707C215.231,54.6 254.707,40.926 260.619,38.878C351.093,7.538 456.552,21.058 518.614,50.256C566.559,72.813 595.911,91.174 639.342,137.642C642.301,140.833 642.326,140.656 644.942,144.128C711.641,219.913 723.949,313.487 726.06,329.539C727.955,347.368 728.028,362.622 728.042,365.504C726.478,408.849 723.61,477.536 665.142,564.246C660.597,570.319 659.782,571.607 659.239,572.311C654.654,578.32 637.752,601.019 609.412,625.396C605.429,628.857 605.561,628.878 605.199,629.147C603.151,630.669 603.245,630.658 601.338,632.297C595.629,637.187 575.454,651.863 566.4,657.341C565.266,658.093 565.36,658.038 565.266,658.093C564.802,658.361 561.879,660.053 559.533,661.555C554.744,664.696 534.073,675.605 533.259,676.01C528.194,678.593 510.003,686.864 498.361,691.122C453.175,706.526 446.108,705.727 421.467,710.066C413.455,711.038 404.045,711.715 402.527,711.824L401.472,712.033C389.961,712.364 390.072,712.611 385.53,712.867C381.236,713.231 381.288,713.047 373.498,713.072C358.86,713.159 339.419,711.225 336.466,710.932C335.019,710.739 324.823,709.68 315.439,707.952C298.467,705.3 283.146,700.804 280.387,699.994C275.227,698.51 246.568,690.262 217.585,676.33C216.535,675.791 206.466,670.62 204.508,669.486C200.834,667.389 200.89,667.544 200.588,667.353C182.372,656.597 168.238,647.062 163.619,643.35C162.51,642.538 150.338,632.858 146.43,629.585C122.159,609.263 106.991,590.662 104.746,588.275C102.063,584.73 98.779,581.391 95.005,575.855C93.267,573.648 93.231,573.762 91.561,571.456C88.846,568.003 76.647,550.771 71.701,542.383C70.792,540.962 68.951,537.771 68.718,537.367C67.445,535.39 66.079,532.733 65.867,532.321C65.25,531.121 37.886,485.019 26.969,420.444C25.647,411.456 24.831,402.999 24.684,401.478C24.552,400.116 23.218,386.295 22.995,384.466L22.921,381.489C22.91,378.928 22.81,355.858 23.075,349.47C25.038,326.424 25.229,326.476 25.38,324.473C25.784,322.551 26.706,315.427 27.034,313.449C32.186,285.428 42.603,221.885 102.381,148.408C140.662,101.354 181.681,76.52 189.631,71.707Z" style="fill:rgb(124,184,56);fill-opacity:1;"/>
        <path d="M372.472,167.043C372.988,167.135 372.984,168.14 373.5,168.232C375.141,168.526 376.833,168.084 378.5,168.12C379.866,168.15 392.741,168.432 395.557,167.146C410.797,170.463 416.171,175.32 420.583,178.394C430.658,186.995 439.975,194.134 446.894,217.427C446.666,217.799 445.244,217.166 445.621,219.5C447.496,231.133 443.661,239.169 442.924,240.713C442.897,240.77 443.066,240.65 442.923,241.5C442.628,243.249 443.473,242.893 443.77,243.647C439.613,251.097 436.787,254.893 427.193,262.014C425.106,260.526 424.827,260.677 424.627,260.786C420.735,262.889 419.824,260.588 416.512,263.463C413.958,262.433 413.966,262.589 411.623,261.283C404.523,257.325 410.345,255.706 416.216,250.226C418.515,251.267 419.1,251.54 420.059,249.277C420.902,247.291 421.087,247.223 420.053,245.242C420.649,243.899 421.408,242.632 422.005,241.289C425.926,232.46 418.329,240.641 404.76,247.995C403.272,248.883 403.374,248.949 403.241,249.01C360.779,268.515 338.488,256.212 330.783,257.762C329.724,261.006 321.728,303.574 320.979,307.565C319.642,306.921 319.394,305.113 318.972,306.599C318.908,306.825 318.682,307.62 318.61,309.514C318.361,316.05 317.831,315.921 317.54,322.498C317.47,324.077 318.325,336.349 319.5,335.79C320.107,335.502 320.349,334.683 320.956,334.394C330.357,357.883 337.917,365.377 327.609,391.549C327.434,391.29 328.108,390.927 327.933,390.668C326.532,388.598 322.765,395.153 322.772,395.567C322.782,396.143 322.845,396.107 323.671,398.603C315.295,411.406 315.185,411.931 314.908,413.27C321.41,415.302 324.909,404.153 337.027,390.089C337.547,389.951 337.98,390.887 338.5,390.749C338.539,390.739 341.639,387.947 343.301,386.303C355.134,374.591 357.253,375.779 356.626,374.5C356.387,374.012 355.668,373.883 355.429,373.395C361.594,369.187 361.656,369.429 368.365,366.194C369.273,366.571 368.955,367.373 370.5,367.082C370.827,367.02 379.188,363.531 382.479,363.37C385.068,363.244 384.81,362.388 387.433,362.258C390.534,362.104 390.37,361.274 393.484,361.367C399.044,361.533 398.953,360.577 404.533,361.061C408.516,361.407 413.229,360.557 417.5,361.674C417.826,361.76 418.235,362.028 418.5,361.82C419.345,361.158 418.676,360.782 419.543,360.074C420.01,359.692 420.077,360.532 420.54,360.153C442.096,364.523 454.197,368.821 472.819,384.035C476.129,386.738 474.244,380.452 474.123,376.493C474.58,376.087 475.207,375.906 475.663,375.5C477.973,373.447 474.825,369.712 478.135,363.405C478.756,362.222 478.074,362.303 476.671,360.568C479.414,354.04 479.426,354.168 483.373,348.404C483.511,348.467 485.091,349.195 485.091,349.195C487.414,347.116 488.489,347.054 487.179,344.19C493.287,338.41 493.201,338.462 500.308,334.139C502.113,334.958 502.105,335.101 502.257,335.023C502.689,334.802 503.045,334.433 503.5,334.264C513.415,330.584 513.54,331.375 514.372,331.013C518.995,329.005 530.376,329.232 530.488,329.231C534.035,329.208 534.755,330.342 536.53,327.292C545.708,329.015 554.472,330.817 565.631,340.354C575.2,349.577 577.098,354.532 580.596,362.461C580.413,363.538 580.708,363.526 580.249,364.5C578.462,368.296 581.415,368.204 581.634,373.475C581.741,376.06 582.969,375.855 582.569,378.49C582.41,379.539 582.579,379.479 583.5,383.054C584.525,392.148 582.644,397.091 583.967,414.518C584.201,417.602 582.576,427.367 585.154,429.479C585.113,432.149 585.071,434.819 585.03,437.489C584.523,437.971 583.699,438.018 583.193,438.5C582.499,439.161 582.775,451.359 582.401,454.5C581.647,461.704 579.799,496.93 579.5,500.446C579.135,501.344 577.044,506.492 579.799,512.558C578.727,515.275 579.552,516.115 574.66,519.762C563.166,524.798 555.21,525.049 548.544,525.988C548.176,525.785 548.595,524.755 545.5,524.797C531.577,524.988 531.69,523.493 530.488,523.57C529.847,523.611 527.62,523.753 522.5,522.792C520.587,522.433 520.597,523.831 520.412,523.946C520.133,524.119 519.716,523.633 519.436,523.806C509.347,521.264 508.893,518.104 499.723,522.906C497.252,521.52 497.11,521.495 494.659,522.878C493.671,523.436 493.739,523.332 492.631,523.828C491.201,524.467 492.976,524.512 493.664,525.874C488.605,528.236 459.082,542.02 426.545,544.994L425.391,543.5C423.8,543.805 423.915,544.017 422.548,543.783C418.47,543.085 419.146,544.74 418.556,545.986L416.48,546.399C415.537,545.858 416,544.446 411.517,544.757C410.188,544.849 410.371,545.092 408.975,545.5C401.828,546.439 388.512,545.047 388.5,546.351C388.494,546.992 389.507,547.351 389.501,547.991C387.347,548.137 376.15,548.896 362.532,547.097C362.117,546.253 362.941,546.237 362.5,545.34C362.459,545.256 362.373,545.081 361.433,544.86C357.92,544.033 357.856,544.936 354.399,543.986C344.145,543.523 336.004,540.889 334.434,540.891C329.555,540.895 329.856,539.692 329.448,539.73C326.66,539.992 327.142,541.021 326.541,541.358C289.564,532.853 281.306,527.044 263.631,520.167C263.719,517.534 264.011,516.343 261.359,516.848C260.331,517.044 256.329,514.419 255.5,515.119C255.1,515.457 254.953,516.034 254.553,516.371C246.449,513.99 246.507,514.105 238.448,511.879C238.679,511.65 239.186,512.222 239.417,511.993C240.837,510.587 240.471,509.706 238.464,509.648C237.664,509.624 237.777,509.355 228.5,508.673C227.856,508.626 227.971,508.322 220.5,507.638C218.8,507.482 207.408,506.973 197.683,505.5C194.327,501.953 194.648,499.918 191.303,501.616C190.102,499.138 190.199,499.188 189.406,496.518C189.214,493.323 188.3,478.155 190.953,456.536C191.455,456.043 192.29,455.993 192.792,455.5C194.089,454.226 194.464,445.39 194.502,444.5C194.625,441.616 196.429,435.974 193.996,432.54C194.702,428.857 194.702,428.881 194.759,428.563C194.95,427.494 194.817,427.569 194.998,426.558C196.277,427.969 196.131,430.106 197.007,428.399C197.119,428.18 200.03,407.435 202.141,403.359C202.326,403.002 201.423,402.821 203.083,398.411C204.008,395.953 202.708,395.59 205.213,390.438C205.324,390.211 204.852,390.091 206.032,387.378C206.492,386.321 206.574,382.837 209.064,376.359C212.073,368.529 212.361,366.719 212.5,365.845C214.014,363.42 214.238,363.547 214.283,362.424C214.372,360.175 216.069,358.696 216.103,356.5C216.119,355.459 218.805,351.578 219.123,348.5C219.304,346.746 218.502,347.141 218.174,346.37C218.052,346.085 218.636,345.791 218.514,345.506C219.502,343.167 220.489,340.828 221.476,338.489C221.655,338.843 220.632,339.597 222.5,340.512C223.267,340.888 225.871,333.651 226.083,332.5C226.349,331.049 225.634,331.335 225.269,330.387C240.747,300.042 247.303,294.013 264.304,277.296C267.359,278.547 269.745,276.73 268.331,273.322C270.201,271.307 279.241,263.466 283.541,252.517C292.514,229.667 285.195,224.735 319.31,192.288C320.905,190.844 320.79,190.913 322.559,189.579C325.091,191.971 325.268,189.947 327.731,187.5C328.944,187.214 334.006,184.367 333.596,183.5C333.358,182.996 332.629,182.844 332.391,182.34C352.465,169.759 359.791,169.095 372.472,167.043ZM393.286,221.096C387.926,222.67 387.916,222.416 380.616,222.006C379.851,221.479 376.718,221.794 379.717,217.639C386.181,208.683 375.974,199.826 376.699,198.688C378.514,195.839 404.864,198.517 398.031,216.304C397.193,218.484 393.735,220.796 393.286,221.096Z" style="fill:rgb(124,184,56);fill-opacity:1;"/>
    </g>
</svg>
