<?xml version="1.0" encoding="UTF-8" standalone="no"?>
<!DOCTYPE svg PUBLIC "-//W3C//DTD SVG 1.1//EN" "http://www.w3.org/Graphics/SVG/1.1/DTD/svg11.dtd">
<svg width="100%" height="100%" viewBox="0 0 1024 1024" version="1.1" xmlns="http://www.w3.org/2000/svg" xmlns:xlink="http://www.w3.org/1999/xlink" xml:space="preserve" xmlns:serif="http://www.serif.com/" style="fill-rule:evenodd;clip-rule:evenodd;stroke-linejoin:round;stroke-miterlimit:2;">
    <g id="Fondo" transform="matrix(1,0,0,1,147,118)">
        <path d="M359.492,4.201C419.584,3.828 475.321,11.458 549.244,49.976C575.567,63.691 600.298,83.274 604.452,86.563C604.713,86.77 604.595,86.819 604.869,87.016C605.807,87.692 605.752,87.671 606.639,88.329C606.14,89.371 605.4,89.585 606.816,91.094C606.97,91.258 608.5,92.889 608.866,93.016C609.04,93.077 608.986,92.904 610.551,91.441C613.735,94.274 613.714,94.208 616.872,97.052C615.646,99.515 616.434,99.681 618.666,101.297C622.091,103.777 643.877,127.699 645.5,126.96C645.905,126.776 646.274,126.519 646.679,126.335C674.366,155.851 693.309,190.053 693.557,190.469C719.731,235.495 730.009,280.897 731.597,287.475C729.998,289.241 729.063,289.161 729.971,291.302C730.801,293.261 730.082,293.363 730.872,295.43C731.8,297.858 731.128,297.973 731.952,300.43C733.462,304.933 732.747,305.067 732.909,305.441C734.358,308.778 733.449,308.898 733.961,312.462C734.545,313.978 734.598,313.912 734.339,315.533C734.047,317.356 735.951,320.946 735.892,321.5C735.819,322.176 735.518,322.821 735.496,323.501C735.395,326.65 737.141,328.029 736.742,330.5C735.691,337.009 737.607,336.924 737.482,343.502C737.47,344.146 737.34,350.973 738.43,351.5C738.898,351.726 739.522,351.256 739.99,351.482C740.477,362.322 740.771,362.254 740.096,382.474C739.88,382.239 740.207,381.756 739.991,381.52C736.37,377.575 737.984,394.844 737.72,395.5C734.863,402.601 737.644,404.767 736.793,406.5C735.386,409.365 735.184,409.292 735.426,412.486C735.454,412.863 736.018,413.13 735.937,413.5C735.833,413.972 735.085,414.109 734.967,414.578C734.864,414.984 734.355,420.329 734.395,420.483C734.925,422.553 733.265,424.402 733.524,427.503C733.538,427.673 731.414,442.96 728.992,449.565C727.88,452.597 730.312,453.273 730.543,453.513C720.678,491.836 710.677,522.132 677.567,571.544C676.444,573.068 665.036,590.828 641.974,614.946C563.303,697.223 462.124,727.524 393.527,729.98C392.783,729.615 393.074,728.97 391.5,728.983C389.66,728.997 389.683,728.508 368.502,728.453C368.182,728.452 365.104,728.444 364.51,728.615C364.282,728.68 364.362,728.774 362.497,730.79C358.843,730.572 355.188,730.355 351.534,730.138C344.978,729.698 345.004,730.082 338.541,729.244C309.582,725.486 309.514,726.198 274.598,717.184C243.984,709.281 199.612,687.323 190.606,681.322C188.87,680.165 188.792,680.345 168.357,667.715C167.136,666.832 167.061,666.999 152.737,657.196C127.77,640.11 98.126,607.939 93.794,603.237C81.623,590.029 43.653,542.664 22.694,479.426C10.179,441.665 7.994,415.348 7.4,412.515C12.189,407.988 8.871,406.969 8.146,404.5C7.858,403.516 9.568,395.815 7.256,390.5C7.187,390.342 7.682,378.485 6.675,377.5C6.216,377.052 5.488,376.954 5.029,376.505C4.88,371.379 4.028,342.026 8.45,312.49C11.912,314.606 10.068,320.239 10.107,320.443C10.146,320.644 12.399,320.713 12.498,320.5C12.751,319.96 11.688,314.809 13.645,309.515C14.749,306.53 13.328,306.643 13.247,306.24L14.241,305.334C14.336,302.844 14.272,302.933 14.134,300.503C14.393,299.961 15.504,300.211 15.554,297.533C15.557,297.341 15.598,295.186 15.561,295.127C15.264,294.645 14.334,294.857 14.037,294.374C14.38,289.579 16.458,289.096 13.408,285.477C13.524,284.907 13.993,282.6 15.21,278.437C15.576,279.005 14.733,279.598 16.5,280.444C17.382,280.866 17.358,280.417 17.374,279.465C17.38,279.113 17.14,278.755 17.24,278.418C19.606,270.439 19.828,270.061 20.213,269.407C20.687,268.604 22.305,259.209 24.068,256.371C24.916,255.007 24.017,255.119 22.554,253.52C44.181,187.565 78.958,148.452 84.386,141.404C126.29,92.753 139.156,87.745 160.434,71.407C168.462,65.243 190.555,52.585 193.234,51.05C193.329,50.995 193.234,51.05 194.374,50.29C231.925,29.526 261.822,20.829 286.503,14.509C287.792,15.804 287.658,15.989 289.463,16.354C292.602,18.485 292.903,18.422 299.62,17.894C300.64,17.814 300.398,17.526 300.597,16.547C301.065,14.246 299.608,14.473 299.439,14.121C313.978,10.319 314.208,11.535 315.446,11.132C315.624,11.074 315.375,10.983 314.433,9.02C315.543,8.746 319.075,7.877 328.554,6.807C337.106,5.557 352.181,4.696 359.492,4.201ZM401.484,21.631C405.588,22.377 426.249,23.082 456.596,31.003C464.28,33.009 511.939,45.447 548.55,68.415C550.478,69.665 550.537,69.422 552.413,70.643C573.039,82.708 594.031,99.767 597.458,102.553C600.466,105.064 600.449,104.984 603.36,107.657C612.562,116.02 612.389,116.061 621.518,124.48C664.369,164 720.228,252.789 722.225,352.508C722.468,364.572 722.599,364.484 722.27,376.489C722.06,381.066 722.407,403.969 713.708,444.561C710.552,459.286 701.93,485.34 696.49,498.496C690.204,514.831 671.544,548.513 659.46,564.472C638.843,593.928 615.75,614.489 605.478,623.476C604.043,624.775 600,628.124 599.519,628.523C592.461,634.561 592.365,634.327 575.352,647.294C569.977,651.219 569.777,650.751 563.352,655.277C562.825,655.647 562.621,655.261 556.509,659.513C553.902,661.278 542.598,667.61 541.376,668.294C534.51,672.799 504.601,685.702 501.352,687.104C488.93,691.829 489.028,691.894 476.363,696.054C474.182,696.757 472.739,697.139 472.421,697.224C471.991,697.338 467.943,698.544 467.554,698.66C357.967,730.413 272.535,696.52 263.569,694.28C253.434,690.628 253.433,690.666 252.558,690.334C246.042,687.885 229.692,681.124 226.542,679.41C226.273,679.269 225.96,679.227 225.69,679.087C223.701,678.053 223.759,678.148 221.653,677.15C219.848,676.283 206.839,670.038 199.485,665.526C197.584,664.332 197.541,664.564 195.597,663.331C148.195,636.586 112.812,597.203 106.661,590.357C70.942,551.673 50.391,501.777 46.921,493.349C45.519,489.744 45.594,489.816 45.467,489.514C43.653,485.194 43.822,485 42.496,481.501C29.535,445.258 25.918,420.441 22.97,381.478C22.457,345.484 23.736,329.536 30.026,296.425C49.154,203.846 98.051,140.981 158.744,92.827C159.684,92.172 159.673,92.29 160.552,91.567C170.838,83.101 180.866,76.956 182.721,75.819C253.137,32.67 317.666,16.143 401.484,21.631Z" style="fill:rgb(99,160,33);fill-opacity:1;"/>
        <path d="M557.84,185.199C557.531,185.761 556.724,185.929 556.415,186.491C556.184,186.912 556.993,186.797 557.102,192.455C557.122,193.491 556.666,194.613 557.078,195.564C557.359,196.213 558.59,196.001 558.911,196.631C559.42,197.628 557.651,199.941 557.879,204.5C557.94,205.73 556.169,209.229 555.972,209.619C552.666,231.529 553.065,233.89 554.893,237.5C555.224,238.155 554.057,241.866 554.959,245.457C555.066,245.884 555.669,246.071 555.769,246.5C555.884,246.994 554.986,255.715 556.5,255.728C558.181,255.742 557.586,254.89 558.042,254.537L558.171,256.544C557.772,257.15 556.077,259.723 556.636,265.477C556.793,267.102 557.426,266.529 559.048,266.533C560.306,300.554 559.892,300.5 557.156,334.455L556.016,333.5C554.06,335.408 554.51,338.105 554.579,338.517C554.929,340.616 553.954,340.446 553.762,342.516C553.471,345.668 554.278,345.785 552.932,348.589C552.523,352.442 553.066,352.421 552.5,356.23C552.395,356.466 551.904,356.323 551.799,356.559C551.042,358.257 551.467,360.197 551.535,360.506C551.938,362.342 550.044,363.125 550.498,365.5C550.566,365.851 550.812,366.151 550.891,366.5C550.964,366.826 551.092,367.198 550.949,367.5C550.819,367.774 549.604,368.261 549.712,370.503C549.723,370.73 549.856,370.651 551.687,372.54C548.123,389.148 547.82,389.064 547.547,390.515C540.769,417.658 517.653,512.63 407.426,540.208C402.407,541.219 371.603,547.421 343.452,541.949C343.762,541.33 344.631,541.119 344.941,540.5C345.747,538.887 343.544,541.112 339.376,538.896C337.189,537.734 337.255,538.849 335.476,540.602C326.829,537.857 325.411,539.265 308.333,531.936C308.975,530.525 310.736,530.376 309.304,529.803C307.843,529.219 307.742,529.632 306.403,528.785C303.104,526.698 302.717,527.767 299.315,525.912C296.348,524.293 296.571,523.994 296.305,523.878C296.305,523.878 294.634,525.391 294.488,525.522C288.636,522.205 286.808,522.156 273.304,511.813C269.681,511.396 270.224,513.02 247.483,537.484C222.495,564.367 218.812,559.193 215.338,557.906C216.486,557.4 216.281,557.042 217.5,556.953C220.661,556.723 224.202,555.224 224.756,554.99C224.207,554.846 223.981,554.064 223.433,553.92C223.159,553.849 219.785,553.862 219.539,553.934C215.682,555.061 215.771,553.553 215.467,553.672C214.895,553.896 214.697,554.843 214.084,554.89C213.588,554.928 213.394,554.168 213.003,553.861C211.353,552.568 211.134,553.066 211.021,552.932C210.789,552.657 211.185,552.193 211.066,551.853C211.066,551.853 209.625,550.625 209.5,550.518C209.427,550.121 208.982,547.689 209.082,545.489C209.206,542.734 208.899,542.709 210.215,540.359C212.202,536.761 212.143,536.802 214.463,533.475C218.436,527.779 222.812,528.166 219.432,524.44C221.117,522.511 221.066,522.585 222.813,520.805C224.952,518.625 238.617,504.7 249.137,493.155C252.49,489.476 245.863,491.127 232.511,472.493C201.623,426.981 211.762,368.246 246.29,326.326C246.441,326.4 248.182,327.252 248.182,327.252C249.769,326.256 251.851,323.477 252.125,323.11C252.322,322.848 251.923,322.369 252.143,322.126C252.347,321.899 252.808,322.252 253.058,322.076C253.758,321.585 253.052,320.919 260.251,314.162C265.919,308.841 265.771,308.703 266.264,308.242C267.402,307.179 269.985,307.942 268.258,304.21C285.899,288.185 308.557,277.046 312.347,275.182C353.139,255.106 395.909,247.603 423.611,239.984C477.936,225.041 497.068,218.02 532.776,184.8C547.451,171.147 564.115,177.675 561.29,196.455C559.326,193.691 558.728,193.713 559.491,190.501C559.79,189.246 559.364,189.354 558.809,188.414C558.644,188.134 558.624,187.776 558.651,187.453C558.757,186.195 558.266,186.382 557.84,185.199Z" style="fill:rgb(105,167,38);fill-opacity:1;"/>
        <path d="M277.269,505.239C299.053,488.452 301.656,493.301 326.333,481.226C351.081,469.116 387.002,436.679 397.015,424.096C405.838,413.009 406.818,413.878 423.856,390.762C425.852,388.054 460.851,340.57 446.335,355.214C431.236,370.445 341.402,427.278 296.788,472.784C245.545,525.051 230.87,548.954 229.596,543.467C226.485,530.07 241.322,506.869 257.394,488.414C261.083,484.178 265.625,481.356 263.05,477.861C222.558,422.908 264.023,348.682 341.319,317C401.96,292.145 467.581,287.207 519.921,223.871C540.519,198.945 539.638,197.588 542.402,197.199C545.483,196.765 544.1,198.521 543.766,201.542C542.055,217.04 519.666,305.351 479.018,362.139C406.839,462.976 346.083,474.559 319.47,486.403C318.744,486.726 313.435,489.089 310.321,490.268C302.15,493.36 301.999,492.942 301.496,493.5C301.426,493.578 301.832,496.108 300.553,495.992C300.155,495.956 299.921,495.473 299.542,495.346C298.283,494.928 295.526,497.374 292.441,497.68C292.174,497.706 291.998,497.124 291.759,497.248C291.181,497.548 291.599,497.991 285.404,502.336C282.932,504.07 283.396,504.603 280.57,505.86C278.186,506.92 278.301,505.772 277.269,505.239Z" style="fill:rgb(189,233,115);fill-opacity:1;"/>
        <path d="M491.225,266.178C499.169,260.082 498.651,259.386 499.509,259.353C501.257,259.286 499.85,260.311 497.106,265.275C491.843,274.796 491.682,274.59 485.809,283.699C445.581,346.095 419.505,359.999 364.313,395.202C289.466,442.942 280.524,463.93 271.46,472.434C269.062,474.685 263.156,454.694 267.311,437.451C284.158,367.536 343.852,335.375 391.663,316.93C444.186,296.667 446.201,299.871 491.225,266.178Z" style="fill:rgb(42,102,9);fill-opacity:1;"/>
        <path d="M492.798,268.586C489.439,274.439 481.265,286.741 480.229,288.298C477.52,292.376 460.338,318.234 442.336,336.346C440.578,338.115 440.413,337.851 438.588,339.595C409.498,367.375 364.041,391.329 351.655,400.787C341.032,408.899 340.167,407.522 329.754,415.797C299.724,439.66 298.519,438.437 273.265,467.321C271.473,469.37 271.658,469.521 271.44,469.604C271.017,469.765 270.94,468.84 270.785,468.415C269.199,464.069 269.201,464.111 268.769,459.474C264.119,409.545 308.16,363.87 340.431,344.382C362.156,331.263 362.14,331.273 385.599,321.768C407.041,313.08 432.809,306.176 457.664,291.796C460.412,290.205 481.489,278.011 490.52,269.524C491.433,268.666 491.57,269.092 492.798,268.586Z" style="fill:rgb(78,135,24);fill-opacity:1;"/>
        <path d="M659.46,564.472C659.791,564.855 662.667,565.414 659.264,569.242C648.395,581.47 649.25,582.101 638.192,594.252C627.341,606.176 627.472,606.292 625.209,608.168C624.121,609.071 624.359,609.285 612.368,620.3C606.182,625.981 605.788,626.228 605.5,625.597C604.78,624.015 605.484,624.056 605.478,623.476C615.75,614.489 638.843,593.928 659.46,564.472Z" style="fill:rgb(81,149,19);fill-opacity:0.99;"/>
        <path d="M740.096,382.474C738.89,415.99 734.226,437.202 730.543,453.513C730.312,453.273 727.88,452.597 728.992,449.565C731.414,442.96 733.538,427.673 733.524,427.503C733.265,424.402 734.925,422.553 734.395,420.483C734.355,420.329 734.864,414.984 734.967,414.578C735.085,414.109 735.833,413.972 735.937,413.5C736.018,413.13 735.454,412.863 735.426,412.486C735.184,409.292 735.386,409.365 736.793,406.5C737.644,404.767 734.863,402.601 737.72,395.5C737.984,394.844 736.37,377.575 739.991,381.52C740.207,381.756 739.88,382.239 740.096,382.474Z" style="fill:rgb(74,143,13);fill-opacity:0.99;"/>
        <path d="M731.597,287.475C732.535,291.295 739.543,324.338 739.99,351.482C739.522,351.256 738.898,351.726 738.43,351.5C737.34,350.973 737.47,344.146 737.482,343.502C737.607,336.924 735.691,337.009 736.742,330.5C737.141,328.029 735.395,326.65 735.496,323.501C735.518,322.821 735.819,322.176 735.892,321.5C735.951,320.946 734.047,317.356 734.339,315.533C734.598,313.912 734.545,313.978 733.961,312.462C733.449,308.898 734.358,308.778 732.909,305.441C732.747,305.067 733.462,304.933 731.952,300.43C731.128,297.973 731.8,297.858 730.872,295.43C730.082,293.363 730.801,293.261 729.971,291.302C729.063,289.161 729.998,289.241 731.597,287.475Z" style="fill:rgb(71,140,9);fill-opacity:0.99;"/>
        <path d="M555.972,209.619C556.613,210.262 557.255,210.906 557.896,211.549C556.609,218.291 554.845,222.865 558.042,254.537C557.586,254.89 558.181,255.742 556.5,255.728C554.986,255.715 555.884,246.994 555.769,246.5C555.669,246.071 555.066,245.884 554.959,245.457C554.057,241.866 555.224,238.155 554.893,237.5C553.065,233.89 552.666,231.529 555.972,209.619Z" style="fill:rgb(75,143,12);fill-opacity:0.99;"/>
        <path d="M541.376,668.294C541.525,668.59 543.602,669.793 541.157,671.155C540.635,671.446 540.482,671.048 534.411,674.337C523.036,680.5 522.745,679.684 514.328,684.09C513.786,684.374 513.679,683.87 507.31,687.129C506.444,687.572 506.387,686.741 505.5,687.144C503.728,687.948 504.107,688.471 502.374,689.23C502.033,688.521 501.693,687.812 501.352,687.104C504.601,685.702 534.51,672.799 541.376,668.294Z" style="fill:rgb(76,144,13);fill-opacity:0.99;"/>
        <path d="M616.872,97.052C632.357,111.176 632.164,111.292 646.679,126.335C646.274,126.519 645.905,126.776 645.5,126.96C643.877,127.699 622.091,103.777 618.666,101.297C616.434,99.681 615.646,99.515 616.872,97.052Z" style="fill:rgb(83,149,20);fill-opacity:0.99;"/>
        <path d="M5.029,376.505C5.488,376.954 6.216,377.052 6.675,377.5C7.682,378.485 7.187,390.342 7.256,390.5C9.568,395.815 7.858,403.516 8.146,404.5C8.871,406.969 12.189,407.988 7.4,412.515C6.433,397.995 5.298,398.114 5.029,376.505Z" style="fill:rgb(74,142,10);fill-opacity:0.99;"/>
        <path d="M268.258,304.21C269.985,307.942 267.402,307.179 266.264,308.242C265.771,308.703 265.919,308.841 260.251,314.162C253.052,320.919 253.758,321.585 253.058,322.076C252.808,322.252 252.347,321.899 252.143,322.126C251.923,322.369 252.322,322.848 252.125,323.11C251.851,323.477 249.769,326.256 248.182,327.252C248.182,327.252 246.441,326.4 246.29,326.326C256.539,314.473 256.444,314.461 268.258,304.21Z" style="fill:rgb(82,152,18);fill-opacity:0.99;"/>
        <path d="M393.527,729.98C386.422,730.84 386.482,730.928 362.497,730.79C364.362,728.774 364.282,728.68 364.51,728.615C365.104,728.444 368.182,728.452 368.502,728.453C389.683,728.508 389.66,728.997 391.5,728.983C393.074,728.97 392.783,729.615 393.527,729.98Z" style="fill:rgb(55,122,1);fill-opacity:0.99;"/>
        <path d="M314.433,9.02C315.375,10.983 315.624,11.074 315.446,11.132C314.208,11.535 313.978,10.319 299.439,14.121C298.624,14.183 294.247,14.517 289.463,16.354C287.658,15.989 287.792,15.804 286.503,14.509C293.632,13.319 299.303,10.999 314.433,9.02Z" style="fill:rgb(71,140,9);fill-opacity:0.99;"/>
        <path d="M22.554,253.52C24.017,255.119 24.916,255.007 24.068,256.371C22.305,259.209 20.687,268.604 20.213,269.407C19.828,270.061 19.606,270.439 17.24,278.418C17.14,278.755 17.38,279.113 17.374,279.465C17.358,280.417 17.382,280.866 16.5,280.444C14.733,279.598 15.576,279.005 15.21,278.437C18.435,265.794 18.709,265.949 22.554,253.52Z" style="fill:rgb(75,145,14);fill-opacity:0.99;"/>
        <path d="M501.352,687.104C501.693,687.812 502.033,688.521 502.374,689.23C499.882,690.261 499.836,689.943 497.392,691.206C497.106,691.354 496.892,690.553 493.5,692.264C493.11,692.461 489.228,694.42 488.452,694.354C486.583,694.197 483.577,696.491 482.499,696.496C480.344,696.505 480.182,697.487 477.538,697.5L476.363,696.054C489.028,691.894 488.93,691.829 501.352,687.104Z" style="fill:rgb(75,143,11);fill-opacity:0.99;"/>
        <path d="M557.84,185.199C558.266,186.382 558.757,186.195 558.651,187.453C558.624,187.776 558.644,188.134 558.809,188.414C559.364,189.354 559.79,189.246 559.491,190.501C558.728,193.713 559.326,193.691 561.29,196.455C560.711,199.873 558.186,210.346 557.896,211.549C557.255,210.906 556.613,210.262 555.972,209.619C556.169,209.229 557.94,205.73 557.879,204.5C557.651,199.941 559.42,197.628 558.911,196.631C558.59,196.001 557.359,196.213 557.078,195.564C556.666,194.613 557.122,193.491 557.102,192.455C556.993,186.797 556.184,186.912 556.415,186.491C556.724,185.929 557.531,185.761 557.84,185.199Z" style="fill:rgb(87,154,22);fill-opacity:0.99;"/>
        <path d="M13.408,285.477C16.458,289.096 14.38,289.579 14.037,294.374C13.918,294.84 13.254,295.034 13.134,295.5C13.058,295.799 13.13,295.786 13.077,299.362C12.152,302.351 12.187,302.317 12.016,305.41C11.931,305.868 11.227,306.042 11.142,306.5C10.989,307.324 12.563,314.207 8.981,308.552C10.943,296.902 11.054,296.997 13.408,285.477Z" style="fill:rgb(77,144,15);fill-opacity:0.99;"/>
        <path d="M557.156,334.455C556.985,336.312 556.001,347.022 553.968,357.554L552.5,356.23C553.066,352.421 552.523,352.442 552.932,348.589C554.278,345.785 553.471,345.668 553.762,342.516C553.954,340.446 554.929,340.616 554.579,338.517C554.51,338.105 554.06,335.408 556.016,333.5L557.156,334.455Z" style="fill:rgb(72,143,9);fill-opacity:0.99;"/>
        <path d="M219.432,524.44C222.812,528.166 218.436,527.779 214.463,533.475C212.143,536.802 212.202,536.761 210.215,540.359C209.541,540.031 208.867,539.702 208.193,539.374C211.513,532.893 211.829,533.119 219.432,524.44Z" style="fill:rgb(79,151,15);fill-opacity:0.99;"/>
        <path d="M320.543,481.556C316.214,483.94 316.052,483.385 311.416,485.224C301.42,489.189 300.997,485.988 301.427,485.314C302.288,483.967 306.86,487.089 308.21,483.384C309.204,480.656 314.621,483.253 317.466,481.425C318.324,480.874 318.706,479.108 320.543,481.556Z" style="fill:rgb(89,150,30);fill-opacity:1;"/>
        <path d="M208.321,551.592L209.5,550.518C209.625,550.625 211.066,551.853 211.066,551.853C211.185,552.193 210.789,552.657 211.021,552.932C211.134,553.066 211.353,552.568 213.003,553.861C213.394,554.168 213.588,554.928 214.084,554.89C214.697,554.843 214.895,553.896 215.467,553.672C215.771,553.553 215.682,555.061 219.539,553.934C219.785,553.862 223.159,553.849 223.433,553.92C223.981,554.064 224.207,554.846 224.756,554.99C224.202,555.224 220.661,556.723 217.5,556.953C216.281,557.042 216.486,557.4 215.338,557.906C211.003,555.666 210.941,555.689 208.321,551.592Z" style="fill:rgb(93,160,27);fill-opacity:0.99;"/>
        <path d="M12.016,305.41L13.247,306.24C13.328,306.643 14.749,306.53 13.645,309.515C11.688,314.809 12.751,319.96 12.498,320.5C12.399,320.713 10.146,320.644 10.107,320.443C10.068,320.239 11.912,314.606 8.45,312.49C8.627,311.178 8.804,309.865 8.981,308.552C12.563,314.207 10.989,307.324 11.142,306.5C11.227,306.042 11.931,305.868 12.016,305.41Z" style="fill:rgb(96,158,32);fill-opacity:1;"/>
        <path d="M294.488,525.522C294.634,525.391 296.305,523.878 296.305,523.878C296.571,523.994 296.348,524.293 299.315,525.912C302.717,527.767 303.104,526.698 306.403,528.785C307.742,529.632 307.843,529.219 309.304,529.803C310.736,530.376 308.975,530.525 308.333,531.936C307.197,531.488 299.486,528.449 294.488,525.522Z" style="fill:rgb(82,153,16);fill-opacity:0.99;"/>
        <path d="M553.968,357.554C553.807,358.755 553.158,363.575 551.687,372.54C549.856,370.651 549.723,370.73 549.712,370.503C549.604,368.261 550.819,367.774 550.949,367.5C551.092,367.198 550.964,366.826 550.891,366.5C550.812,366.151 550.566,365.851 550.498,365.5C550.044,363.125 551.938,362.342 551.535,360.506C551.467,360.197 551.042,358.257 551.799,356.559C551.904,356.323 552.395,356.466 552.5,356.23L553.968,357.554Z" style="fill:rgb(71,143,9);fill-opacity:0.99;"/>
        <path d="M299.439,14.121C299.608,14.473 301.065,14.246 300.597,16.547C300.398,17.526 300.64,17.814 299.62,17.894C292.903,18.422 292.602,18.485 289.463,16.354C294.247,14.517 298.624,14.183 299.439,14.121Z" style="fill:rgb(103,163,39);fill-opacity:0.99;"/>
        <path d="M42.496,481.501C43.822,485 43.653,485.194 45.467,489.514C45.594,489.816 45.519,489.744 46.921,493.349C45.694,493.393 46.063,494.301 44.821,494.346C44.195,494.369 44.957,494.008 44.709,493.429C40.551,483.738 40.223,482.898 42.496,481.501Z" style="fill:rgb(75,142,12);fill-opacity:0.99;"/>
        <path d="M252.558,690.334C253.433,690.666 253.434,690.628 263.569,694.28C262.861,694.687 262.154,695.093 261.446,695.5C260.791,695.48 259.541,695.443 253.542,693.352C250.831,692.407 249.201,691.607 251.631,690.092C251.902,689.923 252.287,690.503 252.558,690.334Z" style="fill:rgb(83,147,20);fill-opacity:0.99;"/>
        <path d="M692.762,217.857C692.173,217.831 691.772,218.68 691.184,218.654C690.89,218.641 691.171,218.052 691.053,217.782C689.391,213.969 686.087,211.782 690.442,210.127C695.477,208.214 691.969,212.539 692.762,217.857Z" style="fill:rgb(102,164,37);fill-opacity:0.99;"/>
        <path d="M208.193,539.374C208.867,539.702 209.541,540.031 210.215,540.359C208.899,542.709 209.206,542.734 209.082,545.489C208.982,547.689 209.427,550.121 209.5,550.518L208.321,551.592C206.115,546.597 206.391,543.894 208.193,539.374Z" style="fill:rgb(79,149,13);fill-opacity:1;"/>
        <path d="M476.363,696.054L477.538,697.5C475.793,699.034 475.863,699.162 473.462,699.356C471.816,699.489 472.018,699.977 470.441,700.331C468.802,700.699 469.018,700.01 467.554,698.66C467.943,698.544 471.991,697.338 472.421,697.224C472.739,697.139 474.182,696.757 476.363,696.054Z" style="fill:rgb(75,142,15);fill-opacity:1;"/>
        <path d="M347.28,281.281C350.64,281.322 351.9,280.152 351.683,282.358C351.576,283.439 351.581,283.65 350.527,283.643C348.329,283.63 348.282,284.005 346.461,282.793C345.906,282.423 345.935,282.727 343.45,284.411C342.179,285.273 342.709,283.998 342.269,282.524C341.306,279.295 344.03,282.125 347.28,281.281Z" style="fill:rgb(109,172,42);fill-opacity:1;"/>
        <path d="M529.481,44.695C530.899,45.522 530.301,45.817 530.173,47.488C529.995,49.831 528.746,49.507 527.295,47.751C526.768,47.113 523.31,46.793 525.177,45.232C525.368,45.072 527.497,43.292 527.593,43.285C527.781,43.273 527.73,43.388 529.481,44.695Z" style="fill:rgb(103,162,36);fill-opacity:1;"/>
        <path d="M558.171,256.544C558.239,257.343 558.84,264.486 559.048,266.533C557.426,266.529 556.793,267.102 556.636,265.477C556.077,259.723 557.772,257.15 558.171,256.544Z" style="fill:rgb(80,147,27);fill-opacity:0.93;"/>
        <path d="M335.476,540.602C337.255,538.849 337.189,537.734 339.376,538.896C343.544,541.112 345.747,538.887 344.941,540.5C344.631,541.119 343.762,541.33 343.452,541.949C336.013,540.653 336.108,540.739 335.476,540.602Z" style="fill:rgb(87,154,24);fill-opacity:0.97;"/>
        <path d="M563.352,655.277C564.094,656.826 564.8,657.321 563.188,658.054C559.322,659.813 559.472,662.421 557.5,660.555C557.152,660.225 556.857,659.843 556.509,659.513C562.621,655.261 562.825,655.647 563.352,655.277Z" style="fill:rgb(80,148,17);fill-opacity:0.99;"/>
        <path d="M700.27,230.728C697.656,228.152 698.099,227.88 697.349,226.913C696.39,225.675 694.298,228.155 695.03,226.727C695.678,225.462 703.092,224.505 701.512,227.504C701.263,227.976 701.225,227.9 701.312,228.441C701.312,228.441 700.353,230.545 700.27,230.728Z" style="fill:rgb(100,162,36);fill-opacity:1;"/>
        <path d="M597.458,102.553C600.298,99.914 600.61,102.006 603.255,104.774C605.025,106.626 603.536,107.252 603.36,107.657C600.449,104.984 600.466,105.064 597.458,102.553Z" style="fill:rgb(84,149,22);fill-opacity:1;"/>
        <path d="M13.077,299.362L14.134,300.503C14.272,302.933 14.336,302.844 14.241,305.334L13.247,306.24L12.016,305.41C12.187,302.317 12.152,302.351 13.077,299.362Z" style="fill:rgb(103,164,37);fill-opacity:0.99;"/>
        <path d="M593.934,81.026C593.273,81.641 594.187,81.982 593.536,82.589C593.475,82.645 593.444,82.674 592.532,82.332C589.192,81.078 589.062,80.668 588.964,80.357C587.129,74.531 593.643,80.749 593.934,81.026Z" style="fill:rgb(106,168,39);fill-opacity:0.98;"/>
        <path d="M221.653,677.15C223.759,678.148 223.701,678.053 225.69,679.087C225.96,679.227 226.273,679.269 226.542,679.41C224.812,680.938 224.858,681.141 224.679,681.055C223.6,680.534 223.693,680.574 222.643,680.172C222.477,680.109 220.974,679.533 220.612,679.275C220.612,679.275 221.57,677.32 221.653,677.15Z" style="fill:rgb(84,151,22);fill-opacity:0.97;"/>
        <path d="M14.037,294.374C14.334,294.857 15.264,294.645 15.561,295.127C15.598,295.186 15.557,297.341 15.554,297.533C15.504,300.211 14.393,299.961 14.134,300.503L13.077,299.362C13.13,295.786 13.058,295.799 13.134,295.5C13.254,295.034 13.918,294.84 14.037,294.374Z" style="fill:rgb(102,163,36);fill-opacity:1;"/>
        <path d="M720.3,450.088C720.147,450.119 718.563,451.331 718.639,449.469C718.811,445.251 720.354,446.356 720.522,446.382C720.815,446.428 724.298,446.97 720.3,450.088Z" style="fill:rgb(101,161,37);fill-opacity:1;"/>
        <path d="M606.639,88.329C608.566,89.952 608.585,89.787 610.551,91.441C608.986,92.904 609.04,93.077 608.866,93.016C608.5,92.889 606.97,91.258 606.816,91.094C605.4,89.585 606.14,89.371 606.639,88.329Z" style="fill:rgb(79,147,18);fill-opacity:0.96;"/>
        <path d="M195.597,663.331C197.541,664.564 197.584,664.332 199.485,665.526C197.749,667.025 197.795,667.223 197.616,667.139C196.941,666.825 197.387,666.461 196.739,666.087C196.485,665.94 196.11,666.279 195.86,666.126C193.113,664.443 195.653,663.918 195.597,663.331Z" style="fill:rgb(81,148,21);fill-opacity:0.97;"/>
        <path d="M548.55,68.415C548.687,68.288 550.262,66.838 550.262,66.838C552.259,67.919 553.077,69.229 553.246,69.5L552.413,70.643C550.537,69.422 550.478,69.665 548.55,68.415Z" style="fill:rgb(78,145,21);fill-opacity:0.98;"/>
        <path d="M585.5,643.483C586.062,645.292 585.991,645.391 584.637,646.695C583.098,648.178 581.283,645.006 584.371,643.319C584.705,643.137 585.166,643.665 585.5,643.483Z" style="fill:rgb(103,163,35);fill-opacity:1;"/>
        <path d="M426.591,712.439C432.674,712.487 428.946,717.065 427.656,716.082C427.414,715.897 428.444,715.623 426.591,712.439Z" style="fill:rgb(102,161,36);fill-opacity:1;"/>
        <path d="M279.439,511.597C277.958,510.286 276.652,509.745 278.5,508.936C279.587,508.459 279.655,508.539 280.476,509.514C281.961,511.276 280.739,511.478 279.439,511.597Z" style="fill:rgb(105,165,37);fill-opacity:1;"/>
        <path d="M723.33,316.577C723.595,315.939 723.285,315.153 723.551,314.515C723.748,314.042 725.983,312.648 725.792,314.443C725.515,317.048 724.625,316.396 723.33,316.577Z" style="fill:rgb(100,160,34);fill-opacity:1;"/>
        <path d="M349.696,717.552C350.56,718.14 350.438,718.191 351.335,718.667C353.35,719.736 350.978,722.277 350.425,720.641C349.872,719.008 348.974,719.53 349.063,718.662C349.107,718.239 349.652,717.976 349.696,717.552Z" style="fill:rgb(102,160,37);"/>
        <path d="M545.622,53.038C545.452,53.189 540.924,57.195 542.803,52.648C543.502,50.957 543.962,52.467 545.622,53.038Z" style="fill:rgb(103,162,37);fill-opacity:1;"/>
        <path d="M184.326,672.769C183.804,670.912 182.923,670.544 184.496,669.493C186.589,668.096 185.206,670.156 185.162,670.222C185.043,670.4 184.66,670.97 184.326,672.769Z" style="fill:rgb(102,161,37);fill-opacity:1;"/>
        <path d="M693.076,200.668C693.656,200.891 693.627,200.369 694.239,200.604C694.377,200.657 695.12,200.942 695.727,201.686C698.821,205.481 693.25,200.814 693.076,200.668Z" style="fill:rgb(103,164,36);fill-opacity:0.99;"/>
    </g>
</svg>
