<?xml version="1.0" encoding="UTF-8"?>
<svg id="Layer_1" xmlns="http://www.w3.org/2000/svg" version="1.1" viewBox="0 0 1000 1000">
  
  <defs>
    
  </defs>
  <path class="st5" d="M881.13,465.31"></path>
  <polygon class="st2" points="626.1 499.77 689.3 563.68 657.41 563.68 607.24 513.32 592.23 526.05 592.23 563.68 566.95 563.68 566.95 449.7 592.02 449.7 592.12 500.82 653.2 449.7 686.42 449.7 626.1 499.77"></polygon>
  <polygon class="st2" points="699.83 449.7 699.83 563.68 723.38 563.68 723.86 449.7 699.83 449.7"></polygon>
  <path class="st2" d="M746.46,449.7h102.35v19.91h-77.46v26.43s68.74-.19,68.74,0v18.57h-68.46l-.29,28.63h79.09v20.44h-103.98v-113.98Z"></path>
  <path class="st4" d="M147.72,449.78c-3.83-.26-80.68,0-80.68,0v113.74h23.49v-36.26s52.47.26,58.47,0c6-.26,35.23-4.34,34.85-39.57-.38-35.23-32.3-37.66-36.13-37.91ZM142.02,507.05h-50.27v-37.34s49.85-.45,51.61,0,15.7,2.68,16.09,19.72c.34,15.22-17.43,17.62-17.43,17.62Z"></path>
  <circle class="st6" cx="443.66" cy="501.76" r="45.43"></circle>
  <circle class="st1" cx="370.09" cy="592.4" r="9.1"></circle>
  <circle class="st7" cx="345.76" cy="569.62" r="5.94"></circle>
  <circle class="st0" cx="327.89" cy="539.58" r="4.6"></circle>
  <circle class="st1" cx="496.72" cy="400.93" r="9.1"></circle>
  <circle class="st7" cx="524.18" cy="419.84" r="5.94"></circle>
  <circle class="st0" cx="546.31" cy="446.89" r="4.6"></circle>
  <path class="st4" d="M288.62,522.41s31.31-1.34,31.6-34.56-26.14-37.02-30.73-38.19c-4.6-1.16-88.56,0-88.56,0v113.86h24.89v-38.81l35.52-.1,33.13,38.9h30.73l-36.57-41.11ZM225.96,504.81v-35.31h53.23c12.64,2.18,16.18,7.98,15.89,18.77s-8.42,16.46-12.45,16.54c-46.59.86-58.48-.03-56.68,0Z"></path>
  <path class="st2" d="M970.59,457.02s-104.36-32.65-105.7,26.23c0,0-1.05,29.52,46.05,31.79,0,0,41.36-.29,43.95,14.62,0,0,12.3,37.78-84.41,4.27l-3.49,22.57s110.2,34.95,111.64-23.07c0,0,8.23-39.35-62.52-38.78,0,0-25.32,1.87-26.81-13.98-.05-12.37,21.64-13.5,21.64-13.5,0,0,44.57-2.95,56.49,9.86l3.16-20.01Z"></path>
  <path class="st3" d="M480.42,402.91s-56.94-27.64-117,31.02c0,0-69,68.23,11.49,138.64,0,0,51.51,41.17,110.3-7.85,0,0,27-23.55,21.45-54.57,0,0-3.81,50.55-62.99,55.15,0,0-70.09,9-75.84-66.45s82.53-100.72,112.6-95.94Z"></path>
  <path class="st3" d="M382.49,484.48s5.55-82.34,99.19-68.36c0,0,67.02,10.01,71.04,89.07,0,0,3.06,54.19-56.87,87.21-59.94,33.02-108.57,3.91-108.57,3.91,0,0,58.21,18.38,104.36-23.55,46.15-41.94,23.94-96.13,23.94-96.13,0,0-8.43-30.64-55.34-39.26s-76.4,32.94-77.74,47.11Z"></path>
</svg>